<?xml version="1.0" encoding="UTF-8" standalone="no"?>
<!-- Created with Inkscape (http://www.inkscape.org/) -->

<svg
   width="143.93333mm"
   height="143.93333mm"
   viewBox="0 0 143.93333 143.93334"
   version="1.1"
   id="svg1"
   xml:space="preserve"
   sodipodi:docname="app-icon.svg"
   inkscape:version="1.3.2 (091e20e, 2023-11-25, custom)"
   inkscape:export-filename="app-icon.png"
   inkscape:export-xdpi="88.992485"
   inkscape:export-ydpi="88.992485"
   xmlns:inkscape="http://www.inkscape.org/namespaces/inkscape"
   xmlns:sodipodi="http://sodipodi.sourceforge.net/DTD/sodipodi-0.dtd"
   xmlns:xlink="http://www.w3.org/1999/xlink"
   xmlns="http://www.w3.org/2000/svg"
   xmlns:svg="http://www.w3.org/2000/svg"><sodipodi:namedview
     id="namedview1"
     pagecolor="#ffffff"
     bordercolor="#000000"
     borderopacity="0.25"
     inkscape:showpageshadow="2"
     inkscape:pageopacity="0.0"
     inkscape:pagecheckerboard="0"
     inkscape:deskcolor="#d1d1d1"
     inkscape:document-units="mm"
     inkscape:zoom="2"
     inkscape:cx="228.5"
     inkscape:cy="341.75"
     inkscape:window-width="3840"
     inkscape:window-height="2066"
     inkscape:window-x="3829"
     inkscape:window-y="-11"
     inkscape:window-maximized="1"
     inkscape:current-layer="layer1"
     inkscape:export-bgcolor="#ffffffff" /><defs
     id="defs1"><linearGradient
       id="linearGradient2"
       inkscape:collect="always"><stop
         style="stop-color:#2a005a;stop-opacity:1;"
         offset="0"
         id="stop3" /><stop
         style="stop-color:#36006b;stop-opacity:0.19849627;"
         offset="1"
         id="stop2" /></linearGradient><linearGradient
       inkscape:collect="always"
       xlink:href="#linearGradient2"
       id="linearGradient3"
       x1="33.835697"
       y1="53.965069"
       x2="114.23849"
       y2="127.25664"
       gradientUnits="userSpaceOnUse"
       spreadMethod="reflect"
       gradientTransform="matrix(0.90215495,0,0,0.99991837,18.932459,0.00445786)" /><filter
       style="color-interpolation-filters:sRGB"
       inkscape:label="Drop Shadow"
       id="filter33"
       x="-0.024089751"
       y="-0.036603373"
       width="1.0582169"
       height="1.0884582"><feFlood
         result="flood"
         in="SourceGraphic"
         flood-opacity="0.498039"
         flood-color="rgb(25,17,36)"
         id="feFlood32" /><feGaussianBlur
         result="blur"
         in="SourceGraphic"
         stdDeviation="1.000000"
         id="feGaussianBlur32" /><feOffset
         result="offset"
         in="blur"
         dx="1.000000"
         dy="1.000000"
         id="feOffset32" /><feComposite
         result="comp1"
         operator="in"
         in="flood"
         in2="offset"
         id="feComposite32" /><feComposite
         result="comp2"
         operator="over"
         in="SourceGraphic"
         in2="comp1"
         id="feComposite33" /></filter><filter
       style="color-interpolation-filters:sRGB"
       inkscape:label="Drop Shadow"
       id="filter43"
       x="-0.011236913"
       y="-0.012423051"
       width="1.0318379"
       height="1.0351986"><feFlood
         result="flood"
         in="SourceGraphic"
         flood-opacity="0.956863"
         flood-color="rgb(58,45,73)"
         id="feFlood42" /><feGaussianBlur
         result="blur"
         in="SourceGraphic"
         stdDeviation="0.500000"
         id="feGaussianBlur42" /><feOffset
         result="offset"
         in="blur"
         dx="1.000000"
         dy="1.000000"
         id="feOffset42" /><feComposite
         result="comp1"
         operator="in"
         in="flood"
         in2="offset"
         id="feComposite42" /><feComposite
         result="comp2"
         operator="over"
         in="SourceGraphic"
         in2="comp1"
         id="feComposite43" /></filter></defs><g
     inkscape:label="Camada 1"
     inkscape:groupmode="layer"
     id="layer1"
     transform="translate(-49.560974,-54.595905)"><rect
       style="fill:#000000;stroke-width:3.76944;fill-opacity:1"
       id="rect1"
       width="143.93333"
       height="143.93333"
       x="49.560974"
       y="54.595905"
       inkscape:label="bg"
       inkscape:export-filename=".\rect1.png"
       inkscape:export-xdpi="90.352943"
       inkscape:export-ydpi="90.352943" /><rect
       style="fill:url(#linearGradient3);stroke-width:3.76944"
       id="rect2"
       width="143.93333"
       height="143.93333"
       x="49.560974"
       y="54.595905"
       inkscape:label="bg"
       inkscape:export-filename=".\app-icon.png"
       inkscape:export-xdpi="90.352943"
       inkscape:export-ydpi="90.352943" /><path
       id="path1-9"
       style="fill:#bfbac5;fill-opacity:0.95686299;stroke-width:4.04619;filter:url(#filter43)"
       inkscape:label="film"
       d="m 193.49465,101.93412 -106.7909,96.59463 h 8.07496 l 8.9638,-8.10803 3.84834,3.82354 -4.73666,4.28449 h 64.60071 l 6.78512,-6.13709 -30.78676,-30.58573 -8.96586,8.10958 -3.84834,-3.82354 8.96586,-8.10958 3.84834,3.82354 8.96587,-8.11011 -3.84835,-3.82302 8.96535,-8.10958 3.84834,3.82302 -8.96534,8.10958 30.78623,30.58626 8.96586,-8.10958 1.32343,1.31464 v -60.94512 l -5.21311,4.71547 -3.84835,-3.82302 9.06146,-8.1964 z m -10.28929,82.34796 -8.96534,8.10958 3.84834,3.82302 -2.5585,2.31407 h 8.07548 l 9.88931,-8.94519 v -7.30446 l -6.44095,5.826 z m -7.73803,-58.73803 3.84834,3.82302 -8.96534,8.10959 -3.84834,-3.82303 z m -53.79362,48.65751 3.84835,3.82354 -8.96586,8.10958 -3.84835,-3.82354 z" /><path
       id="path1"
       style="fill:#ffffff;stroke:none;stroke-width:1.27424;stroke-opacity:1;filter:url(#filter33)"
       d="m 97.245173,71.10598 0.177838,1.002427 c 0.761982,4.286222 12.425249,63.321503 12.560619,63.577573 0.0956,0.18076 1.65141,0.28245 3.45747,0.22569 l 3.28388,-0.10319 6.27116,-23.23039 6.27118,-23.231064 2.61091,10.837374 c 1.43609,5.96028 3.96609,16.41383 5.62194,23.23036 l 3.01042,12.39372 3.24675,0.10471 c 1.78589,0.0575 3.35461,-0.0245 3.48608,-0.18226 0.26807,-0.32167 13.37977,-63.071904 13.37977,-64.03322 0,-0.548456 -0.42244,-0.602393 -3.97575,-0.511189 l -3.97575,0.101814 -4.23092,22.235771 c -2.32705,12.229654 -4.34037,22.727874 -4.47393,23.329324 -0.20079,0.90424 -1.20061,-2.75605 -5.77481,-21.142184 l -5.53181,-22.235778 h -3.40082 -3.40022 l -5.77116,22.116868 c -4.14677,15.892824 -5.8344,21.894004 -5.99709,21.324474 -0.12454,-0.43592 -1.9817,-10.55247 -4.12678,-22.481384 -2.1451,-11.928942 -3.9753,-22.058089 -4.06711,-22.50918 -0.16297,-0.800743 -0.26693,-0.820169 -4.40938,-0.820169 z m -13.798164,0.182259 -0.155911,24.605167 -0.155911,24.605154 -0.909282,2.30104 c -1.051794,2.66297 -2.812464,4.62345 -4.687088,5.21862 -2.117904,0.67241 -5.246349,0.16016 -7.852212,-1.2865 -1.26209,-0.70065 -2.941256,-1.79408 -3.730913,-2.42919 -1.714252,-1.37876 -1.649972,-1.42978 -3.592053,2.8706 l -1.36788,3.02938 0.857513,0.87214 c 2.104568,2.13941 5.953285,4.29405 9.120821,5.10685 2.590215,0.66459 7.1258,0.65469 9.343725,-0.0207 4.133661,-1.25864 6.974019,-4.03611 8.890606,-8.6944 2.185091,-5.31088 2.215497,-5.77579 2.119422,-32.484354 L 91.242576,71.288191 H 87.34479 Z"
       sodipodi:nodetypes="ccsscccccccsscccscccccsssccccccssscccccscccc"
       inkscape:label="jw" /></g></svg>
