<svg xmlns="http://www.w3.org/2000/svg" viewBox="0 0 30 30" height="1em">
  <defs>
    <clipPath id="a">
      <path fill="#fff" d="M0 0h30v30H0z"/>
    </clipPath>
  </defs>
  <g clip-path="url(#a)">
    <g transform="translate(.919)">
      <path fill="none" d="M2.647 23.315c.2.008.426.012.668.016l.688.012c.733.008 1.536 0 2.232-.033H2.647ZM14.956 19.186a.366.366 0 0 0-.184-.049.36.36 0 0 0-.193.053 17.286 17.286 0 0 1-4.94 1.9h9.159a41.48 41.48 0 0 1-3.842-1.904ZM6.911 23.425a19.36 19.36 0 0 1-2.118.688q-.307.08-.614.135c-.217.041-.43.074-.635.094.135.135.27.266.414.4.111.1.225.2.34.295.2.008.5.02.864.029.279.008.59.016.922.02a30.55 30.55 0 0 0 3.06-.074.083.083 0 0 1 .037.16 19.289 19.289 0 0 1-1.88.627c-.246.066-.5.127-.741.176-.27.053-.541.1-.795.123a17.185 17.185 0 0 0 1.892 1.016c.078.037.156.07.238.107.3-.029.66-.066 1.057-.119.34-.041.709-.094 1.09-.156a16.9 16.9 0 0 0 3.642-.942.123.123 0 0 1 .127.209c-.487.389-1.114.864-1.757 1.278-.209.135-.418.262-.631.381a7.67 7.67 0 0 1-.688.348c.782.217 1.368.328 1.606.369a.67.67 0 0 0 .09.008h.02a7.2 7.2 0 0 0 5.391-2.294 7.587 7.587 0 0 0 1.52-2.994H6.956a.086.086 0 0 1-.045.116Z"/>
      <path fill="#6d6d6d" d="M27.61.113a1.026 1.026 0 0 0-1.38.442l-7.021 13.6.119.037a5.427 5.427 0 0 1 .836.348 4.466 4.466 0 0 1 .852.582L28.048 1.49A1.02 1.02 0 0 0 27.61.113Z"/>
      <circle cx="1.643" cy="1.643" r="1.643" fill="#6d6d6d" transform="translate(22.886 23.741)"/>
      <circle cx=".832" cy=".832" r=".832" fill="#6d6d6d" transform="translate(20.154 28.316)"/>
      <circle cx=".832" cy=".832" r=".832" fill="#6d6d6d" transform="translate(24.656 28.124)"/>
      <path fill="#d6d6d6" d="M6.87 23.27c-.2.02-.414.033-.639.045h.721a.076.076 0 0 0-.082-.045Z"/>
      <path fill="none" d="M11.45 21.627v-1.044c-.573.188-1.18.356-1.815.5a29.585 29.585 0 0 1-3.302.563 35.873 35.873 0 0 1-4.055.229h-.217a.186.186 0 0 0-.164.274 8.6 8.6 0 0 0 .746 1.163c.2.008.426.012.668.016l.688.012c.733.008 1.536 0 2.232-.033h.721a.081.081 0 0 1-.045.115 19.36 19.36 0 0 1-2.118.688q-.307.08-.614.135c-.217.041-.43.074-.635.094.135.135.27.266.414.4.111.1.225.2.34.295.2.008.5.02.864.029.279.008.59.016.922.02a30.551 30.551 0 0 0 3.06-.074.083.083 0 0 1 .037.16 19.289 19.289 0 0 1-1.88.627c-.246.066-.5.127-.741.176-.27.053-.541.1-.795.123a17.185 17.185 0 0 0 1.891 1.021c.078.037.156.07.238.107.3-.029.66-.066 1.057-.119.34-.041.709-.094 1.09-.156a16.9 16.9 0 0 0 3.646-.942.123.123 0 0 1 .127.209c-.487.389-1.114.864-1.757 1.278-.209.135-.418.262-.631.381a7.67 7.67 0 0 1-.688.348c.782.217 1.368.328 1.606.369a.67.67 0 0 0 .09.008h.02a7.2 7.2 0 0 0 5.391-2.294 7.587 7.587 0 0 0 1.52-2.994 11.185 11.185 0 0 0 .3-1.589.4.4 0 0 0 0-.1h-8.2Z"/>
      <path fill="none" d="M19.409 21.324c-.193-.07-.4-.147-.61-.238a41.472 41.472 0 0 1-3.842-1.9.366.366 0 0 0-.184-.049.36.36 0 0 0-.193.053 14.728 14.728 0 0 1-2.1 1.024v1.413H9.35v-.481a29.5 29.5 0 0 1-3.017.5 35.872 35.872 0 0 1-4.055.229h-.217a.186.186 0 0 0-.164.274 8.6 8.6 0 0 0 .746 1.163c.2.008.426.012.668.016l.688.012c.733.008 1.536 0 2.232-.033h.721a.081.081 0 0 1-.045.115 19.36 19.36 0 0 1-2.118.688q-.307.08-.614.135c-.217.041-.43.074-.635.094.135.135.27.266.414.4.111.1.225.2.34.295.2.008.5.02.864.029.279.008.59.016.922.02a30.55 30.55 0 0 0 3.06-.074.083.083 0 0 1 .037.16 19.289 19.289 0 0 1-1.88.627c-.246.066-.5.127-.741.176-.27.053-.541.1-.795.123a17.185 17.185 0 0 0 1.892 1.016c.078.037.156.07.238.107.3-.029.66-.066 1.057-.119.34-.041.709-.094 1.09-.156a16.9 16.9 0 0 0 3.642-.942.123.123 0 0 1 .127.209c-.487.389-1.114.864-1.757 1.278-.209.135-.418.262-.631.381a7.67 7.67 0 0 1-.688.348c.782.217 1.368.328 1.606.369a.67.67 0 0 0 .09.008h.02a7.2 7.2 0 0 0 5.391-2.294 7.588 7.588 0 0 0 1.52-2.994 11.185 11.185 0 0 0 .3-1.589.4.4 0 0 0 0-.1.382.382 0 0 0-.249-.293Z"/>
      <path fill="none" d="M19.409 21.324c-.193-.07-.4-.147-.61-.238a41.472 41.472 0 0 1-3.842-1.9.366.366 0 0 0-.184-.049.36.36 0 0 0-.193.053 14.728 14.728 0 0 1-2.1 1.024 20.066 20.066 0 0 1-2.843.869c-.094.02-.193.045-.287.066a29.5 29.5 0 0 1-3.017.497 35.872 35.872 0 0 1-4.055.229h-.217a.186.186 0 0 0-.164.274 8.767 8.767 0 0 0 .578.93l16.885.233a11.185 11.185 0 0 0 .3-1.589.366.366 0 0 0-.25-.4Z"/>
      <path fill="#d6d6d6" d="M19.646 21.582v-.008a.123.123 0 0 0-.016-.041s0 0 0-.008a.166.166 0 0 0-.02-.037l-.037-.042v-.008a.234.234 0 0 0-.029-.033c-.012-.008-.02-.02-.033-.029s0 0-.008 0l-.037-.025h-.008a.48.48 0 0 0-.045-.02c-.193-.07-.4-.147-.61-.238a41.472 41.472 0 0 1-3.842-1.9.366.366 0 0 0-.184-.049.36.36 0 0 0-.193.053 14.728 14.728 0 0 1-2.1 1.024c-.078.029-.156.061-.233.09-.016 0-.029.012-.045.016-.066.025-.127.049-.193.07l-.061.025c-.061.02-.123.045-.184.066a.307.307 0 0 1-.066.02 20.066 20.066 0 0 1-2.061.582 29.585 29.585 0 0 1-3.3.561 35.873 35.873 0 0 1-4.055.229h-.229a.186.186 0 0 0-.164.274 8.725 8.725 0 0 0 .655 1.045l.086.119c.2.008.426.012.668.016l.688.012c.733.008 1.536 0 2.232-.033h.721a.081.081 0 0 1-.045.115 19.359 19.359 0 0 1-2.118.688q-.307.08-.614.135c-.217.041-.43.074-.635.094.135.135.27.266.414.4.111.1.225.2.34.295.2.008.5.02.864.029.279.008.59.016.922.02a30.55 30.55 0 0 0 3.06-.074.083.083 0 0 1 .037.16 19.289 19.289 0 0 1-1.88.627c-.246.066-.5.127-.741.176-.27.053-.541.1-.795.123a17.185 17.185 0 0 0 1.892 1.016c.078.037.156.07.238.107.3-.029.66-.066 1.057-.119.34-.041.709-.094 1.09-.156a16.9 16.9 0 0 0 3.642-.942.123.123 0 0 1 .127.209c-.487.389-1.114.864-1.757 1.278-.209.135-.418.262-.631.381a7.67 7.67 0 0 1-.688.348c.782.217 1.368.328 1.606.369a.67.67 0 0 0 .09.008h.02a7.2 7.2 0 0 0 5.391-2.294 7.588 7.588 0 0 0 1.52-2.994 11.185 11.185 0 0 0 .3-1.589.2.2 0 0 0-.003-.141Z"/>
      <path fill="#6d6d6d" d="M21.469 18.428a3.674 3.674 0 0 0-.942-2.355c-.045-.045-.09-.09-.139-.135a3.258 3.258 0 0 0-.7-.483 4.214 4.214 0 0 0-.676-.283 2.521 2.521 0 0 0-.291-.074 2.252 2.252 0 0 0-.4-.037 4.348 4.348 0 0 0-2.658 1.253 22.834 22.834 0 0 1-2.349 1.932 10.417 10.417 0 0 1-3 1.225 25.449 25.449 0 0 1-4.182.795 34.4 34.4 0 0 1-3.793.221c-.5 0-1-.012-1.507-.041H.697a.695.695 0 0 0-.66.922 10.567 10.567 0 0 0 2.994 4.428 15.792 15.792 0 0 0 4.072 2.605 21.3 21.3 0 0 0 5.137 1.6h.008a.731.731 0 0 0 .094.008h.025a8.577 8.577 0 0 0 6.529-2.79c1.996-2.323 2.717-5.801 2.573-8.791Zm-1.811 3.3a11.4 11.4 0 0 1-.3 1.589 7.534 7.534 0 0 1-1.52 2.994 7.188 7.188 0 0 1-5.391 2.294h-.02a.669.669 0 0 1-.09-.008 18.88 18.88 0 0 1-1.606-.369c.225-.1.455-.217.688-.348.209-.119.422-.246.631-.381.647-.418 1.27-.889 1.757-1.278a.123.123 0 0 0-.127-.209 16.9 16.9 0 0 1-3.642.942c-.381.061-.75.115-1.09.156-.4.049-.758.09-1.057.119-.078-.033-.156-.07-.238-.107a17.185 17.185 0 0 1-1.892-1.016 7.216 7.216 0 0 0 .795-.123c.246-.049.5-.111.741-.176a19.655 19.655 0 0 0 1.88-.627.083.083 0 0 0-.037-.16 30.55 30.55 0 0 1-3.057.073c-.332 0-.647-.012-.922-.02-.365-.012-.668-.02-.864-.029l-.34-.295a8.263 8.263 0 0 1-.414-.4c.2-.02.418-.053.635-.094s.41-.086.614-.135a19.36 19.36 0 0 0 2.118-.688.083.083 0 0 0 .045-.115h-.72c-.7.037-1.5.041-2.232.033l-.688-.012c-.242 0-.467-.012-.668-.016-.057-.078-.115-.156-.168-.233a9.2 9.2 0 0 1-.578-.93.187.187 0 0 1 .164-.274h.218a35.922 35.922 0 0 0 4.055-.229 29.5 29.5 0 0 0 3.015-.5c.094-.02.193-.041.287-.066a22.821 22.821 0 0 0 1.815-.5c.352-.115.7-.238 1.028-.369a14.728 14.728 0 0 0 2.1-1.024.37.37 0 0 1 .193-.053.377.377 0 0 1 .184.049 42.526 42.526 0 0 0 3.842 1.9c.213.086.418.168.61.238a.386.386 0 0 1 .25.3.606.606 0 0 0-.003.094Z"/>
    </g>
  </g>
</svg>